<?xml version="1.0" encoding="UTF-8"?>
<svg width="24px" height="24px" viewBox="0 0 24 24" version="1.1" xmlns="http://www.w3.org/2000/svg" xmlns:xlink="http://www.w3.org/1999/xlink">
    <!-- Generator: Sketch 50.2 (55047) - http://www.bohemiancoding.com/sketch -->
    <title>cancel</title>
    <desc>Created with Sketch.</desc>
    <defs></defs>
    <g id="Page-1" stroke="none" stroke-width="1" fill="none" fill-rule="evenodd">
        <g id="popup-cart" transform="translate(-1336.000000, -386.000000)" fill="#232121" fill-rule="nonzero">
            <g id="popup" transform="translate(460.000000, 149.000000)">
                <g id="Group-13" transform="translate(100.000000, 181.000000)">
                    <g id="Group-12" transform="translate(230.000000, 24.000000)">
                        <g id="Group-11" transform="translate(0.000000, 28.000000)">
                            <g id="cancel" transform="translate(546.000000, 4.000000)">
                                <path d="M10.6859077,12.1056 L0.226338462,22.5651692 C-0.0642461538,22.8557538 -0.0642461538,23.3265231 0.226338462,23.6171077 C0.371446154,23.7625846 0.561969231,23.8349538 0.752123077,23.8349538 C0.942646154,23.8349538 1.1328,23.7625846 1.27790769,23.6171077 L11.8161231,13.0788923 L22.3543385,23.6171077 C22.4998154,23.7625846 22.6899692,23.8349538 22.8801231,23.8349538 C23.0702769,23.8349538 23.2608,23.7625846 23.4059077,23.6171077 C23.6964923,23.3265231 23.6964923,22.8557538 23.4059077,22.5651692 L12.9467077,12.1056 L23.4129231,1.63864615 C23.7035077,1.34806154 23.7035077,0.877292308 23.4129231,0.586707692 C23.1223385,0.296492308 22.6515692,0.296492308 22.3613538,0.586707692 L11.8164923,11.1323077 L1.27052308,0.587076923 C0.979938462,0.296861538 0.509538462,0.296861538 0.218953846,0.587076923 C-0.0716307692,0.877661538 -0.0716307692,1.34843077 0.218953846,1.63901538 L10.6859077,12.1056 Z" id="Shape"></path>
                            </g>
                        </g>
                    </g>
                </g>
            </g>
        </g>
    </g>
</svg>