<?xml version="1.0" encoding="UTF-8"?>
<svg width="40px" height="28px" viewBox="0 0 40 28" version="1.1" xmlns="http://www.w3.org/2000/svg" xmlns:xlink="http://www.w3.org/1999/xlink">
    <!-- Generator: Sketch 50.2 (55047) - http://www.bohemiancoding.com/sketch -->
    <title>delivery-truck</title>
    <desc>Created with Sketch.</desc>
    <defs></defs>
    <g id="Page-1" stroke="none" stroke-width="1" fill="none" fill-rule="evenodd">
        <g id="Homepage-Tyfli" transform="translate(-435.000000, -3685.000000)" fill="#9DACB4" fill-rule="nonzero">
            <g id="delivery-truck" transform="translate(435.000000, 3685.000000)">
                <path d="M32.6422764,19.9146341 C31.6666667,19.9146341 30.7398374,20.296748 30.0406504,20.9878049 C29.3414634,21.6869919 28.9512195,22.597561 28.9512195,23.5731707 C28.9512195,24.5487805 29.3333333,25.4593496 30.0406504,26.1585366 C30.7479675,26.8495935 31.6666667,27.2317073 32.6422764,27.2317073 C34.6422764,27.2317073 36.2682927,25.5894309 36.2682927,23.5731707 C36.2682927,21.5569106 34.6422764,19.9146341 32.6422764,19.9146341 Z M32.6422764,25.6056911 C31.5203252,25.6056911 30.5772358,24.6788618 30.5772358,23.5731707 C30.5772358,22.4674797 31.5203252,21.5406504 32.6422764,21.5406504 C33.7479675,21.5406504 34.6422764,22.4512195 34.6422764,23.5731707 C34.6422764,24.695122 33.7479675,25.6056911 32.6422764,25.6056911 Z M33.5853659,7.72764228 C33.4390244,7.58943089 33.2439024,7.51626016 33.0406504,7.51626016 L28.8699187,7.51626016 C28.4227642,7.51626016 28.0569106,7.88211382 28.0569106,8.32926829 L28.0569106,14.995935 C28.0569106,15.4430894 28.4227642,15.8089431 28.8699187,15.8089431 L35.4878049,15.8089431 C35.9349593,15.8089431 36.300813,15.4430894 36.300813,14.995935 L36.300813,10.5325203 C36.300813,10.304878 36.203252,10.0853659 36.0325203,9.93089431 L33.5853659,7.72764228 Z M34.6747967,14.1829268 L29.6829268,14.1829268 L29.6829268,9.13414634 L32.7235772,9.13414634 L34.6747967,10.8902439 L34.6747967,14.1829268 Z M12.7886179,19.9146341 C11.8130081,19.9146341 10.8861789,20.296748 10.1869919,20.9878049 C9.48780488,21.6869919 9.09756098,22.597561 9.09756098,23.5731707 C9.09756098,24.5487805 9.4796748,25.4593496 10.1869919,26.1585366 C10.8943089,26.8495935 11.8130081,27.2317073 12.7886179,27.2317073 C14.7886179,27.2317073 16.4146341,25.5894309 16.4146341,23.5731707 C16.4146341,21.5569106 14.7886179,19.9146341 12.7886179,19.9146341 Z M12.7886179,25.6056911 C11.6666667,25.6056911 10.7235772,24.6788618 10.7235772,23.5731707 C10.7235772,22.4674797 11.6666667,21.5406504 12.7886179,21.5406504 C13.8943089,21.5406504 14.7886179,22.4512195 14.7886179,23.5731707 C14.7886179,24.695122 13.8943089,25.6056911 12.7886179,25.6056911 Z M7.36585366,20.9146341 L5.73170732,20.9146341 L5.73170732,18.7520325 C5.73170732,18.304878 5.36585366,17.9390244 4.91869919,17.9390244 C4.47154472,17.9390244 4.10569106,18.304878 4.10569106,18.7520325 L4.10569106,21.7276423 C4.10569106,22.1747967 4.47154472,22.5406504 4.91869919,22.5406504 L7.36585366,22.5406504 C7.81300813,22.5406504 8.17886179,22.1747967 8.17886179,21.7276423 C8.17886179,21.2804878 7.81300813,20.9146341 7.36585366,20.9146341 Z M11.4878049,16.4837398 C11.4878049,16.0365854 11.1219512,15.6707317 10.6747967,15.6707317 L0.81300813,15.6707317 C0.365853659,15.6707317 0,16.0365854 0,16.4837398 C0,16.9308943 0.365853659,17.296748 0.81300813,17.296748 L10.6747967,17.296748 C11.1219512,17.296748 11.4878049,16.9390244 11.4878049,16.4837398 Z M2.46341463,13.5487805 L12.3252033,13.6056911 C12.7723577,13.6056911 13.1382114,13.2479675 13.1463415,12.800813 C13.1544715,12.3455285 12.7886179,11.9796748 12.3414634,11.9796748 L2.4796748,11.9227642 C2.47154472,11.9227642 2.47154472,11.9227642 2.47154472,11.9227642 C2.02439024,11.9227642 1.65853659,12.2804878 1.65853659,12.7276423 C1.6504065,13.1829268 2.01626016,13.5487805 2.46341463,13.5487805 Z M4.12195122,9.85772358 L13.9837398,9.85772358 C14.4308943,9.85772358 14.796748,9.49186992 14.796748,9.04471545 C14.796748,8.59756098 14.4308943,8.23170732 13.9837398,8.23170732 L4.12195122,8.23170732 C3.67479675,8.23170732 3.30894309,8.59756098 3.30894309,9.04471545 C3.30894309,9.49186992 3.67479675,9.85772358 4.12195122,9.85772358 Z M39.6260163,8.7601626 L33.804878,3.93902439 C33.6585366,3.81707317 33.4796748,3.75203252 33.2845528,3.75203252 L26.4390244,3.75203252 L26.4390244,0.825203252 C26.4390244,0.37804878 26.0731707,0.012195122 25.6260163,0.012195122 L4.91869919,0.012195122 C4.47154472,0.012195122 4.10569106,0.37804878 4.10569106,0.825203252 L4.10569106,6.77642276 C4.10569106,7.22357724 4.47154472,7.58943089 4.91869919,7.58943089 C5.36585366,7.58943089 5.73170732,7.22357724 5.73170732,6.77642276 L5.73170732,1.63821138 L24.8211382,1.63821138 L24.8211382,20.9146341 L18.1544715,20.9146341 C17.7073171,20.9146341 17.3414634,21.2804878 17.3414634,21.7276423 C17.3414634,22.1747967 17.7073171,22.5406504 18.1544715,22.5406504 L28.0813008,22.5406504 C28.5284553,22.5406504 28.8943089,22.1747967 28.8943089,21.7276423 C28.8943089,21.2804878 28.5284553,20.9146341 28.0813008,20.9146341 L26.4471545,20.9146341 L26.4471545,5.37804878 L33,5.37804878 L38.300813,9.76829268 L38.2439024,20.898374 L37.398374,20.898374 C36.9512195,20.898374 36.5853659,21.2642276 36.5853659,21.7113821 C36.5853659,22.1585366 36.9512195,22.5243902 37.398374,22.5243902 L39.0487805,22.5243902 C39.495935,22.5243902 39.8617886,22.1666667 39.8617886,21.7195122 L39.9268293,9.39430894 C39.9186992,9.1504065 39.8130081,8.91463415 39.6260163,8.7601626 Z" id="Shape"></path>
            </g>
        </g>
    </g>
</svg>