<?xml version="1.0" encoding="UTF-8"?>
<svg width="16px" height="15px" viewBox="0 0 16 15" version="1.1" xmlns="http://www.w3.org/2000/svg" xmlns:xlink="http://www.w3.org/1999/xlink">
    <!-- Generator: Sketch 50.2 (55047) - http://www.bohemiancoding.com/sketch -->
    <title>filter</title>
    <desc>Created with Sketch.</desc>
    <defs></defs>
    <g id="Tyfli--M-Fasion" stroke="none" stroke-width="1" fill="none" fill-rule="evenodd">
        <g id="product-grid-Mobile-Tyfli" transform="translate(-245.000000, -158.000000)" fill="#5F98B9" fill-rule="nonzero">
            <g id="filter" transform="translate(245.000000, 158.000000)">
                <path d="M15.9189677,0.321548387 C15.8390968,0.152129032 15.6685806,0.0440645161 15.4812903,0.0440645161 L0.483870968,0.0440645161 C0.296580645,0.0440645161 0.126129032,0.152129032 0.0461935484,0.321548387 C-0.0336774194,0.490967742 -0.00864516129,0.691225806 0.110516129,0.835741935 L5.87574194,7.82825806 L5.87574194,14.276 C5.87574194,14.4434194 5.96225806,14.5989032 6.10445161,14.6871613 C6.1823871,14.7354839 6.27083871,14.759871 6.3596129,14.759871 C6.43296774,14.759871 6.50658065,14.7431613 6.57445161,14.7095484 L9.81367742,13.1040645 C9.97825806,13.0225161 10.0823871,12.8548387 10.0826452,12.6711613 L10.0889677,7.82845161 L15.8545161,0.835677419 C15.9737419,0.691225806 15.9988387,0.490903226 15.9189677,0.321548387 Z M9.23206452,7.34664516 C9.16077419,7.43309677 9.12167742,7.54167742 9.12154839,7.65380645 L9.11535484,12.370129 L6.84354839,13.496129 L6.84354839,7.65445161 C6.84354839,7.54212903 6.80451613,7.43329032 6.73303226,7.34664516 L1.50993548,1.01174194 L14.4551613,1.01174194 L9.23206452,7.34664516 Z" id="Shape"></path>
            </g>
        </g>
    </g>
</svg>