<?xml version="1.0" encoding="UTF-8"?>
<svg width="80px" height="80px" viewBox="0 0 80 80" version="1.1" xmlns="http://www.w3.org/2000/svg" xmlns:xlink="http://www.w3.org/1999/xlink">
    <!-- Generator: Sketch 50.2 (55047) - http://www.bohemiancoding.com/sketch -->
    <title>Group 6</title>
    <desc>Created with Sketch.</desc>
    <defs></defs>
    <g id="Page-1" stroke="none" stroke-width="1" fill="none" fill-rule="evenodd">
        <g id="Homepage-Tyfli" transform="translate(-1725.000000, -4345.000000)">
            <g id="Group-6" transform="translate(1725.000000, 4345.000000)">
                <circle id="Oval-3" fill="#5F98B9" cx="40" cy="40" r="40"></circle>
                <g id="next-copy-2" transform="translate(40.000000, 40.000000) scale(1, -1) rotate(90.000000) translate(-40.000000, -40.000000) translate(29.000000, 20.000000)" fill="#FBFBFB" fill-rule="nonzero">
                    <path d="M20.8143096,19.1694561 L1.97748954,0.332635983 C1.5339749,-0.110878661 0.822677824,-0.110878661 0.37916318,0.332635983 C-0.0643514644,0.776150628 -0.0643514644,1.4874477 0.37916318,1.93096234 L18.412636,19.9644351 L0.37916318,37.9979079 C-0.0643514644,38.4414226 -0.0643514644,39.1527197 0.37916318,39.5962343 C0.596736402,39.8138075 0.889623431,39.9309623 1.17414226,39.9309623 C1.45866109,39.9309623 1.75154812,39.8221757 1.96912134,39.5962343 L20.8059414,20.7594142 C21.2494561,20.3242678 21.2494561,19.6046025 20.8143096,19.1694561 Z" id="Shape"></path>
                </g>
            </g>
        </g>
    </g>
</svg>