<?xml version="1.0" encoding="UTF-8"?>
<svg width="20px" height="20px" viewBox="0 0 20 20" version="1.1" xmlns="http://www.w3.org/2000/svg" xmlns:xlink="http://www.w3.org/1999/xlink">
    <!-- Generator: Sketch 50.2 (55047) - http://www.bohemiancoding.com/sketch -->
    <title>search</title>
    <desc>Created with Sketch.</desc>
    <defs></defs>
    <g id="Symbols" stroke="none" stroke-width="1" fill="none" fill-rule="evenodd">
        <g id="header" transform="translate(-1347.000000, -75.000000)" fill="#232121" fill-rule="nonzero">
            <g id="search">
                <g transform="translate(1347.000000, 75.000000)">
                    <path d="M20,18.4179611 L14.0955116,12.5134727 C15.0756149,11.2055494 15.6637515,9.58808063 15.6637515,7.83187573 C15.6637515,3.51315569 12.1505958,0 7.83187573,0 C3.51315569,0 0,3.51315569 0,7.83187573 C0,12.1505958 3.51315569,15.6637515 7.83187573,15.6637515 C9.58808063,15.6637515 11.2055494,15.0756149 12.5134727,14.0955116 L18.4179611,20 L20,18.4179611 Z M0.745892927,7.83187573 C0.745892927,3.92451564 3.92451564,0.745892927 7.83187573,0.745892927 C11.7392358,0.745892927 14.9178585,3.92451564 14.9178585,7.83187573 C14.9178585,11.7392358 11.7392358,14.9178585 7.83187573,14.9178585 C3.92451564,14.9178585 0.745892927,11.7392358 0.745892927,7.83187573 Z" id="Shape"></path>
                </g>
            </g>
        </g>
    </g>
</svg>