<?xml version="1.0" encoding="UTF-8"?>
<svg width="40px" height="33px" viewBox="0 0 40 33" version="1.1" xmlns="http://www.w3.org/2000/svg" xmlns:xlink="http://www.w3.org/1999/xlink">
    <!-- Generator: Sketch 50.2 (55047) - http://www.bohemiancoding.com/sketch -->
    <title>credit-card</title>
    <desc>Created with Sketch.</desc>
    <defs></defs>
    <g id="Page-1" stroke="none" stroke-width="1" fill="none" fill-rule="evenodd">
        <g id="Homepage-Tyfli" transform="translate(-940.000000, -3683.000000)" fill="#9DACB4" fill-rule="nonzero">
            <g id="credit-card" transform="translate(940.000000, 3683.000000)">
                <path d="M21.2917739,22.6235478 L31.9376218,22.6235478 C32.3368421,22.6235478 32.602963,22.3574269 32.602963,21.9582066 L32.602963,15.9699025 C32.602963,15.5706823 32.3368421,15.3045614 31.9376218,15.3045614 L21.2917739,15.3045614 C20.8925536,15.3045614 20.6264327,15.5706823 20.6264327,15.9699025 L20.6264327,21.9582066 C20.6263548,22.3573489 20.8925536,22.6235478 21.2917739,22.6235478 Z M21.957115,16.6352437 L31.2722807,16.6352437 L31.2722807,21.2927875 L21.957115,21.2927875 L21.957115,16.6352437 Z" id="Shape"></path>
                <path d="M3.3268616,13.9737232 L8.64982456,13.9737232 C9.04904483,13.9737232 9.31516569,13.7076023 9.31516569,13.3083821 C9.31516569,12.9091618 9.04904483,12.6430409 8.64982456,12.6430409 L3.3268616,12.6430409 C2.92764133,12.6430409 2.66152047,12.9091618 2.66152047,13.3083821 C2.66152047,13.7076023 2.92764133,13.9737232 3.3268616,13.9737232 Z" id="Shape"></path>
                <path d="M11.3112671,13.9737232 L16.63423,13.9737232 C17.0334503,13.9737232 17.2995712,13.7076023 17.2995712,13.3083821 C17.2995712,12.9091618 17.0334503,12.6430409 16.63423,12.6430409 L11.3112671,12.6430409 C10.9120468,12.6430409 10.6459259,12.9091618 10.6459259,13.3083821 C10.6459259,13.7076023 10.9120468,13.9737232 11.3112671,13.9737232 Z" id="Shape"></path>
                <path d="M3.3268616,16.6352437 L11.9766082,16.6352437 C12.3758285,16.6352437 12.6419493,16.3691228 12.6419493,15.9699025 C12.6419493,15.5706823 12.3758285,15.3045614 11.9766082,15.3045614 L3.3268616,15.3045614 C2.92764133,15.3045614 2.66152047,15.5706823 2.66152047,15.9699025 C2.66152047,16.3691228 2.92764133,16.6352437 3.3268616,16.6352437 Z" id="Shape"></path>
                <path d="M16.634152,15.3044834 L14.6380507,15.3044834 C14.2388304,15.3044834 13.9727096,15.5706043 13.9727096,15.9698246 C13.9727096,16.3690448 14.2388304,16.6351657 14.6380507,16.6351657 L16.634152,16.6351657 C17.0333723,16.6351657 17.2994932,16.3690448 17.2994932,15.9698246 C17.2994932,15.5706043 17.0333723,15.3044834 16.634152,15.3044834 Z" id="Shape"></path>
                <path d="M39.3231969,7.05395712 C38.8574659,6.45512671 38.2586355,6.12241715 37.5267057,6.05590643 L35.9298246,5.86237817 L35.9298246,3.99321637 L35.9298246,2.66253411 C35.9298246,1.19875244 34.7321637,0.00109161793 33.2683821,0.00109161793 L2.6614425,0.00109161793 C1.19766082,0.00101364522 0,1.19867446 0,2.66253411 L0,3.99329435 L0,9.31625731 L0,23.954308 C0,25.1561014 0.807563353,26.1779337 1.90666667,26.5054191 C1.8731384,27.851384 2.89153996,29.019883 4.25840156,29.1441715 L34.9983626,32.6040546 C35.0648733,32.6040546 35.1979727,32.6040546 35.2644834,32.6040546 C36.5952437,32.6040546 37.7929045,31.6060039 37.9259259,30.3418324 L39.9220273,8.98354776 C39.988538,8.31812865 39.7889279,7.58619883 39.3231969,7.05395712 Z M1.33076023,4.65863548 L34.5991423,4.65863548 L34.5991423,6.38861598 L34.5991423,8.65083821 L1.33076023,8.65083821 L1.33076023,4.65863548 Z M2.6614425,1.33177388 L33.2683041,1.33177388 C34.0002339,1.33177388 34.5990643,1.93060429 34.5990643,2.66253411 L34.5990643,3.32787524 L1.33076023,3.32787524 L1.33076023,2.66253411 C1.33076023,1.93060429 1.92959064,1.33177388 2.6614425,1.33177388 Z M1.33076023,23.95423 L1.33076023,9.98152047 L34.5991423,9.98152047 L34.5991423,23.95423 C34.5991423,24.6861598 34.0003119,25.2849903 33.2683821,25.2849903 L2.72803119,25.2849903 L2.66152047,25.2849903 C1.92959064,25.2849903 1.33076023,24.6861598 1.33076023,23.95423 Z M38.5912671,8.71734893 L36.5951657,30.0756335 C36.528655,30.8075634 35.8632359,31.3398051 35.131384,31.2732943 L4.45793372,27.8134113 C3.79259259,27.7469006 3.32678363,27.2145809 3.2602729,26.6157505 L33.2683041,26.6157505 C34.7320858,26.6157505 35.9297466,25.4180897 35.9297466,23.954308 L35.9297466,9.31617934 L35.9297466,7.12046784 L37.460117,7.25356725 C37.7928265,7.25356725 38.1254581,7.45317739 38.3250682,7.71929825 C38.5247563,7.9854191 38.6578558,8.38463938 38.5912671,8.71734893 Z" id="Shape"></path>
            </g>
        </g>
    </g>
</svg>