<?xml version="1.0" encoding="UTF-8"?>
<svg width="20px" height="19px" viewBox="0 0 20 19" version="1.1" xmlns="http://www.w3.org/2000/svg" xmlns:xlink="http://www.w3.org/1999/xlink">
    <!-- Generator: Sketch 50.2 (55047) - http://www.bohemiancoding.com/sketch -->
    <title>shopping-cart</title>
    <desc>Created with Sketch.</desc>
    <defs></defs>
    <g id="Symbols" stroke="none" stroke-width="1" fill="none" fill-rule="evenodd">
        <g id="header" transform="translate(-1585.000000, -76.000000)" fill="#232121" fill-rule="nonzero">
            <g id="shopping-cart">
                <g transform="translate(1585.000000, 76.000000)">
                    <path d="M6.11973899,11.2384339 L17.8944535,11.2384339 L19.9778467,3.80176183 L16.9118434,3.80176183 L15.8110277,0.401435563 L11.2202284,1.88959217 L11.8480914,3.80176183 L11.6320065,3.80176183 L10.4985644,0.401435563 L5.90773246,1.88959217 L6.53559543,3.80176183 L4.08117455,3.80176183 L3.57154976,1.76319739 C3.31468189,0.743915171 2.42587276,0.0222838499 1.40251223,0.0222838499 L0,0.0222838499 L0,0.874388254 L1.40251223,0.874388254 C2.03853181,0.874388254 2.59301794,1.29840131 2.76427406,1.93853181 L5.01892333,10.7614029 C4.55412724,11.0957259 4.24835237,11.6420555 4.24835237,12.2658728 C4.24835237,13.285155 5.10045677,14.1372594 6.11973899,14.1372594 L17.5968352,14.1372594 L17.5968352,13.285155 L6.11973899,13.285155 C5.56525285,13.285155 5.10045677,12.8162806 5.10045677,12.2658728 C5.1004894,11.7073083 5.56933116,11.2384339 6.11973899,11.2384339 Z M15.2606525,1.46150082 L16.0271452,3.75693312 L12.7124633,3.75693312 L12.2435889,2.44003263 L15.2606525,1.46150082 Z M9.94815661,1.46150082 L10.7146493,3.75693312 L7.39996737,3.75693312 L6.93109299,2.44003263 L9.94815661,1.46150082 Z M18.8729853,4.60903752 L17.2584339,10.3904078 L5.78133768,10.3904078 L4.29318108,4.60903752 L18.8729853,4.60903752 Z" id="Shape"></path>
                    <path d="M13.8581077,15.4052529 C12.8796085,15.4052529 12.0723328,16.2125285 12.0723328,17.1910277 C12.0723328,18.1695269 12.8796085,18.9768026 13.8581077,18.9768026 C14.8773899,18.9768026 15.6438825,18.1695269 15.6438825,17.1910277 C15.6439152,16.2125285 14.8366395,15.4052529 13.8581077,15.4052529 Z M13.8581077,18.1695269 C13.3036215,18.1695269 12.8796085,17.7006525 12.8796085,17.1910277 C12.8796085,16.6365416 13.3484829,16.2125285 13.8581077,16.2125285 C14.4125938,16.2125285 14.8366069,16.6365416 14.8366069,17.1910277 C14.8366395,17.7455139 14.3677651,18.1695269 13.8581077,18.1695269 Z" id="Shape"></path>
                    <path d="M7.31027732,15.4052529 C6.33177814,15.4052529 5.52450245,16.2125285 5.52450245,17.1910277 C5.52450245,18.1695269 6.33177814,18.9768026 7.31027732,18.9768026 C8.28877651,18.9768026 9.0960522,18.1695269 9.0960522,17.1910277 C9.0960522,16.2125285 8.28877651,15.4052529 7.31027732,15.4052529 Z M7.31027732,18.1695269 C6.75579119,18.1695269 6.33177814,17.7006525 6.33177814,17.1910277 C6.33177814,16.6365416 6.80065253,16.2125285 7.31027732,16.2125285 C7.81990212,16.2125285 8.28877651,16.6365416 8.28877651,17.1910277 C8.28877651,17.7455139 7.81990212,18.1695269 7.31027732,18.1695269 Z" id="Shape"></path>
                </g>
            </g>
        </g>
    </g>
</svg>