<?xml version="1.0" encoding="UTF-8"?>
<svg width="24px" height="19px" viewBox="0 0 24 19" version="1.1" xmlns="http://www.w3.org/2000/svg" xmlns:xlink="http://www.w3.org/1999/xlink">
    <!-- Generator: Sketch 50.2 (55047) - http://www.bohemiancoding.com/sketch -->
    <title>chat</title>
    <desc>Created with Sketch.</desc>
    <defs></defs>
    <g id="Page-1" stroke="none" stroke-width="1" fill="none" fill-rule="evenodd">
        <g id="Product-page-Tyfli" transform="translate(-1339.000000, -1325.000000)" fill="#5F98B9" fill-rule="nonzero">
            <g id="Group-9" transform="translate(1172.000000, 1310.000000)">
                <g id="chat" transform="translate(167.000000, 15.000000)">
                    <path d="M17.4510937,0.0349563107 L1.35145312,0.0349563107 C0.606234375,0.0349563107 0,0.631381068 0,1.36449515 L0,10.8670777 C0,11.6001917 0.606234375,12.1966626 1.35145312,12.1966626 L2.39540625,12.1966626 L2.39540625,15.7342597 C2.39540625,15.9594927 2.5333125,16.1626359 2.74490625,16.2488738 C2.8149375,16.277466 2.88853125,16.291301 2.96146875,16.291301 C3.10884375,16.291301 3.25359375,16.2346699 3.36192187,16.1281408 L7.3580625,12.1967087 L8.1598125,12.1967087 C8.47251562,12.1967087 8.72596875,11.9473568 8.72596875,11.6397136 C8.72596875,11.3320243 8.47242187,11.0826723 8.1598125,11.0826723 C8.1598125,11.0826723 7.09621875,11.0834102 7.08510937,11.084517 C6.95329687,11.0933252 6.82392187,11.1467282 6.72314062,11.2458325 L3.52771875,14.3895485 C3.52771875,14.3895485 3.52673438,11.6044806 3.52490625,11.5900461 C3.49935937,11.3056917 3.25692187,11.0826723 2.96128125,11.0826723 L1.35145312,11.0826723 C1.23060937,11.0826723 1.13235937,10.985966 1.13235937,10.8671238 L1.13235937,1.36449515 C1.13235937,1.2456068 1.23065625,1.1489466 1.35145312,1.1489466 L17.4510937,1.1489466 C17.5719375,1.1489466 17.6701875,1.24565291 17.6701875,1.36449515 L17.6701875,5.01023544 C17.6701875,5.31787864 17.9237344,5.56723058 18.2363437,5.56723058 C18.5489531,5.56723058 18.8025,5.31787864 18.8025,5.01023544 L18.8025,1.36449515 C18.8025,0.631381068 18.1962656,0.0349563107 17.4510937,0.0349563107 Z" id="Shape"></path>
                    <path d="M22.6485469,6.84793204 L11.3790937,6.84793204 C10.6339219,6.84793204 10.0276406,7.4443568 10.0276406,8.17751699 L10.0276406,14.6601141 C10.0276406,15.3932282 10.633875,15.989699 11.3790937,15.989699 L18.4344375,15.989699 L21.292875,18.8018835 C21.4012031,18.9084587 21.546,18.9650437 21.6933281,18.9650437 C21.7662656,18.9650437 21.8398594,18.9511626 21.9098906,18.9226165 C22.1213906,18.8363786 22.2593906,18.6333277 22.2593906,18.4080024 L22.2593906,15.9896529 L22.6485,15.9896529 C23.3936719,15.9896529 23.9999531,15.3932282 23.9999531,14.660068 L23.9999531,8.17747087 C24,7.4443568 23.3937656,6.84793204 22.6485469,6.84793204 Z M22.8676875,14.6601141 C22.8676875,14.7789563 22.7693906,14.8756626 22.6485937,14.8756626 L21.6934688,14.8756626 C21.3955313,14.8756626 21.151875,15.1021869 21.1295156,15.3897233 C21.1280625,15.4018981 21.127125,17.0632913 21.127125,17.0632913 L19.0714688,15.0408519 C19.0693125,15.0387306 19.0670625,15.0367476 19.0649063,15.0346262 C19.0568438,15.0268786 19.0492031,15.0201456 19.0419844,15.0141044 C18.9423281,14.9281432 18.8121563,14.8756165 18.6692813,14.8756165 L11.3790937,14.8756165 C11.25825,14.8756165 11.16,14.7789102 11.16,14.660068 L11.16,8.17747087 C11.16,8.05858252 11.2582969,7.96192233 11.3790937,7.96192233 L22.6485937,7.96192233 C22.7693906,7.96192233 22.8676875,8.05862864 22.8676875,8.17747087 L22.8676875,14.6601141 Z" id="Shape"></path>
                    <path d="M17.0139375,10.8618204 C16.7014219,10.8618204 16.4477812,11.1113568 16.4477812,11.4188155 C16.4477812,11.7262743 16.7014219,11.9758107 17.0139375,11.9758107 C17.3265,11.9758107 17.5800937,11.7262743 17.5800937,11.4188155 C17.5800937,11.1113568 17.3264531,10.8618204 17.0139375,10.8618204 Z" id="Shape"></path>
                    <path d="M14.553375,3.71749757 C14.553375,3.71749757 4.24921875,3.71749757 4.24921875,3.71749757 C3.9365625,3.71749757 3.6830625,3.96684951 3.6830625,4.27449272 C3.6830625,4.58213592 3.93660937,4.83148786 4.24921875,4.83148786 L14.553375,4.83148786 C14.8660312,4.83148786 15.1195312,4.58213592 15.1195312,4.27449272 C15.1195312,3.96684951 14.8660312,3.71749757 14.553375,3.71749757 Z" id="Shape"></path>
                    <path d="M8.15976563,7.40008495 L4.24921875,7.40008495 C3.9365625,7.40008495 3.6830625,7.64943689 3.6830625,7.9570801 C3.6830625,8.2647233 3.93660938,8.51407524 4.24921875,8.51407524 L8.15976563,8.51407524 C8.47246875,8.51407524 8.72592188,8.2647233 8.72592188,7.9570801 C8.72592188,7.64943689 8.47242188,7.40008495 8.15976563,7.40008495 Z" id="Shape"></path>
                    <path d="M14.3829844,10.8618204 C14.0705156,10.8618204 13.8168281,11.1113568 13.8168281,11.4188155 C13.8168281,11.7262743 14.0705156,11.9758107 14.3829844,11.9758107 C14.6955469,11.9758107 14.9491406,11.7262743 14.9491406,11.4188155 C14.9491406,11.1113568 14.6955469,10.8618204 14.3829844,10.8618204 Z" id="Shape"></path>
                    <path d="M19.6443281,10.8618204 C19.3318125,10.8618204 19.0781719,11.1113568 19.0781719,11.4188155 C19.0781719,11.7262743 19.3318125,11.9758107 19.6443281,11.9758107 C19.9568906,11.9758107 20.2104844,11.7262743 20.2104844,11.4188155 C20.2104844,11.1113568 19.9568437,10.8618204 19.6443281,10.8618204 Z" id="Shape"></path>
                </g>
            </g>
        </g>
    </g>
</svg>