<?xml version="1.0" encoding="UTF-8"?>
<svg width="20px" height="20px" viewBox="0 0 20 20" version="1.1" xmlns="http://www.w3.org/2000/svg" xmlns:xlink="http://www.w3.org/1999/xlink">
    <!-- Generator: Sketch 50.2 (55047) - http://www.bohemiancoding.com/sketch -->
    <title>edit</title>
    <desc>Created with Sketch.</desc>
    <defs></defs>
    <g id="Page-1" stroke="none" stroke-width="1" fill="none" fill-rule="evenodd">
        <g id="profile" transform="translate(-747.000000, -161.000000)" fill="#5F98B9" fill-rule="nonzero">
            <g id="edit" transform="translate(747.000000, 161.000000)">
                <path d="M19.1932773,18.2016807 L0.806722689,18.2016807 C0.420168067,18.2016807 0.117647059,18.5210084 0.117647059,18.8907563 C0.117647059,19.2605042 0.43697479,19.5798319 0.806722689,19.5798319 L19.210084,19.5798319 C19.5966387,19.5798319 19.8991597,19.2605042 19.8991597,18.8907563 C19.8991597,18.5210084 19.5798319,18.2016807 19.1932773,18.2016807 Z" id="Shape"></path>
                <path d="M0.117647059,12.1008403 L0.100840336,15.3781513 C0.100840336,15.5630252 0.168067227,15.7478992 0.302521008,15.8823529 C0.43697479,16.0168067 0.605042017,16.0840336 0.789915966,16.0840336 L4.05042017,16.0672269 C4.23529412,16.0672269 4.40336134,16 4.53781513,15.8655462 L15.7983193,4.60504202 C16.0672269,4.33613445 16.0672269,3.89915966 15.7983193,3.61344538 L12.5714286,0.352941176 C12.302521,0.0840336134 11.8655462,0.0840336134 11.5798319,0.352941176 L9.32773109,2.62184874 L0.319327731,11.6134454 C0.201680672,11.7478992 0.117647059,11.9159664 0.117647059,12.1008403 Z M12.0840336,1.83193277 L14.3529412,4.10084034 L13.0756303,5.37815126 L10.8067227,3.1092437 L12.0840336,1.83193277 Z M1.51260504,12.4033613 L9.81512605,4.10084034 L12.0840336,6.3697479 L3.78151261,14.6554622 L1.49579832,14.6722689 L1.51260504,12.4033613 Z" id="Shape"></path>
            </g>
        </g>
    </g>
</svg>