<?xml version="1.0" encoding="UTF-8"?>
<svg width="11px" height="20px" viewBox="0 0 11 20" version="1.1" xmlns="http://www.w3.org/2000/svg" xmlns:xlink="http://www.w3.org/1999/xlink">
    <!-- Generator: Sketch 50.2 (55047) - http://www.bohemiancoding.com/sketch -->
    <title>facebook-logo copy</title>
    <desc>Created with Sketch.</desc>
    <defs></defs>
    <g id="Page-1" stroke="none" stroke-width="1" fill="none" fill-rule="evenodd">
        <g id="Homepage-Tyfli" transform="translate(-245.000000, -3839.000000)" fill="#5F98B9" fill-rule="nonzero">
            <g id="Group-5" transform="translate(195.000000, 3839.000000)">
                <g id="facebook-logo-copy" transform="translate(50.000000, 0.000000)">
                    <path d="M10.3958302,0.00412371134 L7.80875472,0 C4.90226415,0 3.02396226,1.91443299 3.02396226,4.87752577 L3.02396226,7.12639175 L0.422773585,7.12639175 C0.198,7.12639175 0.0159811321,7.30742268 0.0159811321,7.53072165 L0.0159811321,10.7890722 C0.0159811321,11.0123711 0.198207547,11.1931959 0.422773585,11.1931959 L3.02396226,11.1931959 L3.02396226,19.4150515 C3.02396226,19.6383505 3.20598113,19.8191753 3.43075472,19.8191753 L6.82456604,19.8191753 C7.04933962,19.8191753 7.23135849,19.6381443 7.23135849,19.4150515 L7.23135849,11.1931959 L10.2727547,11.1931959 C10.4975283,11.1931959 10.6795472,11.0123711 10.6795472,10.7890722 L10.6807925,7.53072165 C10.6807925,7.42350515 10.6378302,7.32082474 10.5616604,7.24494845 C10.4854906,7.16907216 10.381717,7.12639175 10.2737925,7.12639175 L7.23135849,7.12639175 L7.23135849,5.22 C7.23135849,4.30371134 7.45115094,3.8385567 8.65264151,3.8385567 L10.3954151,3.83793814 C10.6199811,3.83793814 10.802,3.65690722 10.802,3.43381443 L10.802,0.408247423 C10.802,0.185360825 10.6201887,0.00453608247 10.3958302,0.00412371134 Z" id="Shape"></path>
                </g>
            </g>
        </g>
    </g>
</svg>