<?xml version="1.0" encoding="UTF-8"?>
<svg width="18px" height="20px" viewBox="0 0 18 20" version="1.1" xmlns="http://www.w3.org/2000/svg" xmlns:xlink="http://www.w3.org/1999/xlink">
    <!-- Generator: Sketch 50.2 (55047) - http://www.bohemiancoding.com/sketch -->
    <title>hand</title>
    <desc>Created with Sketch.</desc>
    <defs></defs>
    <g id="Page-1" stroke="none" stroke-width="1" fill="none" fill-rule="evenodd">
        <g id="Product-page-Tyfli" transform="translate(-530.000000, -2419.000000)" fill="#000000" fill-rule="nonzero">
            <g id="hand" transform="translate(530.000000, 2419.000000)">
                <path d="M17.7808697,10.0705882 C17.7508651,9.90802139 17.6522784,9.77112299 17.510828,9.6855615 C14.2531826,7.74759358 12.3414591,7.34545455 10.9441007,7.05454545 C10.7640729,7.01604278 10.5883315,6.98181818 10.4211628,6.94331551 L9.81678388,1.98502674 C9.79535201,0.889839572 8.89521313,0 7.79361461,0 C6.70487521,0 5.82616822,0.838502674 5.77044534,1.91657754 C5.77044534,1.93796791 5.76615896,1.95508021 5.76615896,1.97647059 L5.76615896,4.89411765 L5.71900883,12.0171123 L4.94746123,11.4224599 C4.79743808,11.2941176 3.75156244,10.4513369 2.45707702,10.4513369 C1.5826564,10.4513369 0.806822419,10.8192513 0.151006955,11.5379679 C-0.0333071944,11.7390374 -0.0504526968,12.0385027 0.1081432,12.2609626 C0.163866082,12.3379679 1.49264251,14.1946524 3.57582104,16.0855615 C4.81029721,17.202139 6.05334613,18.0962567 7.27067679,18.742246 C8.82234475,19.5636364 10.3397217,19.9871658 11.7842303,20 C11.8056622,20 11.8313804,20 11.8528123,20 C13.824545,20 15.3590675,19.3497326 16.4135159,18.0705882 C18.7624497,15.2213904 17.8194471,10.2802139 17.7808697,10.0705882 Z M15.5176634,17.3433155 C14.6946793,18.344385 13.4602031,18.8491979 11.8528123,18.8491979 C11.8313804,18.8491979 11.8142349,18.8491979 11.792803,18.8491979 C8.92521776,18.8278075 6.17336464,16.8812834 4.3730869,15.2513369 C2.93715108,13.9508021 1.85269806,12.6417112 1.35547849,12 C1.69410216,11.7390374 2.05844409,11.6106952 2.46136339,11.6106952 C3.39150689,11.6106952 4.1973455,12.2994652 4.20163188,12.3080214 C4.21020463,12.3165775 4.22306375,12.3251337 4.23163651,12.3336898 L5.94190036,13.6470588 C6.11764176,13.7796791 6.34910604,13.8053476 6.55056569,13.7069519 C6.74773897,13.6128342 6.87204386,13.4117647 6.87633024,13.1935829 L6.93205312,4.9026738 L6.93205312,2.01497326 C6.93205312,2.01069519 6.93205312,2.00213904 6.93205312,1.99786096 C6.94491225,1.52727273 7.32639967,1.15935829 7.79790099,1.15935829 C8.27797505,1.15935829 8.66374885,1.5486631 8.66374885,2.02352941 C8.66374885,2.04491979 8.66374885,2.07058824 8.66803523,2.09197861 L9.31527794,7.47807487 C9.34528257,7.71336898 9.51245122,7.90588235 9.73962912,7.9657754 C10.0482482,8.04705882 10.36544,8.11550802 10.7040636,8.18395722 C12.0585583,8.46631016 13.7388175,8.82139037 16.6878439,10.5411765 C16.8335807,11.5336898 17.2493591,15.2427807 15.5176634,17.3433155 Z" id="Shape"></path>
            </g>
        </g>
    </g>
</svg>