<?xml version="1.0" encoding="UTF-8"?>
<svg width="17px" height="20px" viewBox="0 0 17 20" version="1.1" xmlns="http://www.w3.org/2000/svg" xmlns:xlink="http://www.w3.org/1999/xlink">
    <!-- Generator: Sketch 50.2 (55047) - http://www.bohemiancoding.com/sketch -->
    <title>locked</title>
    <desc>Created with Sketch.</desc>
    <defs></defs>
    <g id="Symbols" stroke="none" stroke-width="1" fill="none" fill-rule="evenodd">
        <g id="header" transform="translate(-1397.000000, -75.000000)" fill="#232121" fill-rule="nonzero">
            <g id="locked">
                <g transform="translate(1397.000000, 75.000000)">
                    <path d="M14.0740741,7.44925926 L14.0740741,5.37037037 C14.0740741,2.40925926 11.4155556,0 8.14814815,0 C4.88074074,0 2.22222222,2.40925926 2.22222222,5.37037037 L2.22222222,7.44925926 C0.962592593,7.6662963 0,8.76407407 0,10.0851852 L0,17.322963 C0,18.7988889 1.20111111,20 2.67740741,20 L13.6188889,20 C15.0951852,20 16.2962963,18.7988889 16.2962963,17.3225926 L16.2962963,10.0848148 C16.2962963,8.76407407 15.3337037,7.6662963 14.0740741,7.44925926 Z M2.96296296,5.37037037 C2.96296296,2.81740741 5.28888889,0.740740741 8.14814815,0.740740741 C11.0074074,0.740740741 13.3333333,2.81740741 13.3333333,5.37037037 L13.3333333,7.40740741 L2.96296296,7.40740741 L2.96296296,5.37037037 Z M15.5555556,17.3225926 C15.5555556,18.3903704 14.6866667,19.2592593 13.6188889,19.2592593 L2.67740741,19.2592593 C1.60962963,19.2592593 0.740740741,18.3903704 0.740740741,17.3225926 L0.740740741,10.0848148 C0.740740741,9.01703704 1.60962963,8.14814815 2.67740741,8.14814815 L13.6188889,8.14814815 C14.6866667,8.14814815 15.5555556,9.01703704 15.5555556,10.0848148 L15.5555556,17.3225926 Z" id="Shape"></path>
                    <path d="M8.14814815,10.3703704 C7.33111111,10.3703704 6.66666667,11.0348148 6.66666667,11.8518519 L6.66666667,14.0740741 C6.66666667,14.8911111 7.33111111,15.5555556 8.14814815,15.5555556 C8.96518519,15.5555556 9.62962963,14.8911111 9.62962963,14.0740741 L9.62962963,11.8518519 C9.62962963,11.0348148 8.96518519,10.3703704 8.14814815,10.3703704 Z M8.88888889,14.0740741 C8.88888889,14.4825926 8.55666667,14.8148148 8.14814815,14.8148148 C7.73962963,14.8148148 7.40740741,14.4825926 7.40740741,14.0740741 L7.40740741,11.8518519 C7.40740741,11.4433333 7.73962963,11.1111111 8.14814815,11.1111111 C8.55666667,11.1111111 8.88888889,11.4433333 8.88888889,11.8518519 L8.88888889,14.0740741 Z" id="Shape"></path>
                </g>
            </g>
        </g>
    </g>
</svg>