<?xml version="1.0" encoding="UTF-8"?>
<svg width="40px" height="40px" viewBox="0 0 40 40" version="1.1" xmlns="http://www.w3.org/2000/svg" xmlns:xlink="http://www.w3.org/1999/xlink">
    <!-- Generator: Sketch 50.2 (55047) - http://www.bohemiancoding.com/sketch -->
    <title>receipt</title>
    <desc>Created with Sketch.</desc>
    <defs></defs>
    <g id="Page-1" stroke="none" stroke-width="1" fill="none" fill-rule="evenodd">
        <g id="Homepage-Tyfli" transform="translate(-1445.000000, -3679.000000)" fill="#9DACB4" fill-rule="nonzero">
            <g id="receipt" transform="translate(1445.000000, 3679.000000)">
                <path d="M40,2.862 C40,1.39133333 38.804,0.195333333 37.3333333,0.195333333 L2.66666667,0.195333333 C1.196,0.195333333 0,1.39133333 0,2.862 C0,4.10133333 0.853333333,5.136 2,5.434 L2,37.8046667 L4,35.8046667 L8,39.8046667 L12,35.8046667 L16,39.8046667 L20,35.8046667 L24,39.8046667 L28,35.8046667 L32,39.8046667 L36,35.8046667 L38,37.8046667 L38,5.434 C39.1466667,5.136 40,4.10133333 40,2.862 Z M36.6666667,34.586 L36,33.9193333 L32,37.9193333 L28,33.9193333 L24,37.9193333 L20,33.9193333 L16,37.9193333 L12,33.9193333 L8,37.9193333 L4,33.9193333 L3.33333333,34.586 L3.33333333,5.52866667 L3.33333333,3.52866667 L36.6666667,3.52866667 L36.6666667,5.52866667 L36.6666667,34.586 Z M38,4.016 L38,2.19533333 L2,2.19533333 L2,4.016 C1.602,3.786 1.33333333,3.35466667 1.33333333,2.862 C1.33333333,2.12666667 1.93133333,1.52866667 2.66666667,1.52866667 L37.3333333,1.52866667 C38.0686667,1.52866667 38.6666667,2.12666667 38.6666667,2.862 C38.6666667,3.35466667 38.398,3.786 38,4.016 Z" id="Shape"></path>
                <path d="M29.3333333,26.862 L19.3333333,26.862 C18.9653333,26.862 18.6666667,27.16 18.6666667,27.5286667 C18.6666667,27.8973333 18.9653333,28.1953333 19.3333333,28.1953333 L29.3333333,28.1953333 C29.7013333,28.1953333 30,27.8973333 30,27.5286667 C30,27.16 29.7013333,26.862 29.3333333,26.862 Z" id="Shape"></path>
                <path d="M32.1933333,27.0553333 C32.0733333,27.1813333 32,27.348 32,27.5286667 C32,27.702 32.0733333,27.8753333 32.1933333,28.002 C32.32,28.122 32.4933333,28.1953333 32.6666667,28.1953333 C32.84,28.1953333 33.0133333,28.122 33.14,28.002 C33.26,27.8753333 33.3333333,27.702 33.3333333,27.5286667 C33.3333333,27.348 33.26,27.1813333 33.14,27.0553333 C32.8866667,26.8086667 32.4466667,26.8086667 32.1933333,27.0553333 Z" id="Shape"></path>
                <path d="M32.6666667,17.5286667 L22.6666667,17.5286667 C22.2986667,17.5286667 22,17.8266667 22,18.1953333 C22,18.564 22.2986667,18.862 22.6666667,18.862 L32.6666667,18.862 C33.0346667,18.862 33.3333333,18.564 33.3333333,18.1953333 C33.3333333,17.8266667 33.0346667,17.5286667 32.6666667,17.5286667 Z" id="Shape"></path>
                <path d="M32.6666667,22.1953333 L26,22.1953333 C25.632,22.1953333 25.3333333,22.4933333 25.3333333,22.862 C25.3333333,23.2306667 25.632,23.5286667 26,23.5286667 L32.6666667,23.5286667 C33.0346667,23.5286667 33.3333333,23.2306667 33.3333333,22.862 C33.3333333,22.4933333 33.0346667,22.1953333 32.6666667,22.1953333 Z" id="Shape"></path>
                <path d="M18.6666667,22.862 C18.6666667,23.2306667 18.9653333,23.5286667 19.3333333,23.5286667 L20.6666667,23.5286667 C21.0346667,23.5286667 21.3333333,23.2306667 21.3333333,22.862 C21.3333333,22.4933333 21.0346667,22.1953333 20.6666667,22.1953333 L19.3333333,22.1953333 C18.9653333,22.1953333 18.6666667,22.4933333 18.6666667,22.862 Z" id="Shape"></path>
                <path d="M30,13.5286667 C30,13.16 29.7013333,12.862 29.3333333,12.862 L19.3333333,12.862 C18.9653333,12.862 18.6666667,13.16 18.6666667,13.5286667 C18.6666667,13.8973333 18.9653333,14.1953333 19.3333333,14.1953333 L29.3333333,14.1953333 C29.7013333,14.1953333 30,13.8973333 30,13.5286667 Z" id="Shape"></path>
                <path d="M32.1933333,13.0553333 C32.0733333,13.1813333 32,13.348 32,13.5286667 C32,13.702 32.0733333,13.8753333 32.1933333,14.002 C32.32,14.122 32.4933333,14.1953333 32.6666667,14.1953333 C32.8466667,14.1953333 33.0133333,14.122 33.14,14.002 C33.26,13.8753333 33.3333333,13.702 33.3333333,13.5286667 C33.3333333,13.3553333 33.26,13.1813333 33.14,13.0553333 C32.8933333,12.8086667 32.44,12.8086667 32.1933333,13.0553333 Z" id="Shape"></path>
                <path d="M20.4733333,18.6686667 C20.5933333,18.542 20.6666667,18.3753333 20.6666667,18.1953333 C20.6666667,18.0146667 20.5933333,17.848 20.4733333,17.722 C20.2266667,17.4753333 19.78,17.4753333 19.5266667,17.722 C19.4066667,17.848 19.3333333,18.0146667 19.3333333,18.1953333 C19.3333333,18.3753333 19.4066667,18.542 19.5266667,18.6686667 C19.6533333,18.7886667 19.8266667,18.862 20,18.862 C20.1733333,18.862 20.3466667,18.7886667 20.4733333,18.6686667 Z" id="Shape"></path>
                <path d="M23.8066667,23.3353333 C23.9266667,23.2086667 24,23.042 24,22.862 C24,22.6813333 23.9266667,22.5086667 23.8066667,22.3886667 C23.56,22.142 23.1133333,22.142 22.86,22.3886667 C22.74,22.5146667 22.6666667,22.6886667 22.6666667,22.862 C22.6666667,23.0353333 22.74,23.2086667 22.86,23.3353333 C22.9866667,23.4553333 23.16,23.5286667 23.3333333,23.5286667 C23.5066667,23.5286667 23.68,23.4553333 23.8066667,23.3353333 Z" id="Shape"></path>
                <path d="M11.3333333,14.2626667 L11.3333333,13.5286667 C11.3333333,13.16 11.0346667,12.862 10.6666667,12.862 C10.2986667,12.862 10,13.16 10,13.5286667 L10,14.2646667 C9.27266667,14.4126667 8.61,14.7986667 8.12133333,15.3766667 C7.714,15.858 7.52533333,16.474 7.592,17.112 C7.66,17.7646667 7.996,18.37 8.514,18.7726667 L10,19.9286667 L10,23.554 C9.226,23.278 8.66666667,22.5446667 8.66666667,21.6766667 C8.66666667,21.308 8.368,21.01 8,21.01 C7.632,21.01 7.33333333,21.308 7.33333333,21.6766667 C7.33333333,23.286 8.48066667,24.6326667 10,24.9426667 L10,25.528 C10,25.8966667 10.2986667,26.1946667 10.6666667,26.1946667 C11.0346667,26.1946667 11.3333333,25.8966667 11.3333333,25.528 L11.3333333,24.94 C12.0606667,24.792 12.7233333,24.406 13.2126667,23.828 C13.62,23.3453333 13.808,22.7293333 13.7413333,22.0913333 C13.6726667,21.4393333 13.3373333,20.8346667 12.8193333,20.4326667 L11.3333333,19.2773333 L11.3333333,15.652 C12.1073333,15.928 12.6666667,16.6613333 12.6666667,17.5293333 C12.6666667,17.898 12.9653333,18.196 13.3333333,18.196 C13.7013333,18.196 14,17.898 14,17.5293333 C14,15.9193333 12.8526667,14.5726667 11.3333333,14.2626667 Z M12.0006667,21.4853333 C12.2333333,21.666 12.3846667,21.9386667 12.4153333,22.2306667 C12.444,22.504 12.3653333,22.766 12.1946667,22.9673333 C11.9626667,23.2413333 11.6626667,23.4333333 11.3333333,23.5506667 L11.3333333,20.9653333 L12.0006667,21.4853333 Z M9.33266667,17.7206667 C9.09933333,17.5393333 8.94866667,17.2666667 8.918,16.974 C8.89,16.7013333 8.968,16.44 9.13866667,16.238 C9.37066667,15.964 9.67066667,15.772 10,15.6546667 L10,18.2393333 L9.33266667,17.7206667 Z" id="Shape" transform="translate(10.666667, 19.528333) scale(-1, 1) translate(-10.666667, -19.528333) "></path>
                <circle id="Oval" cx="26.6666667" cy="7.52866667" r="1"></circle>
                <circle id="Oval" cx="24" cy="7.52866667" r="1"></circle>
                <circle id="Oval" cx="29.3333333" cy="7.52866667" r="1"></circle>
                <circle id="Oval" cx="21.3333333" cy="7.52866667" r="1"></circle>
                <circle id="Oval" cx="32" cy="7.52866667" r="1"></circle>
                <circle id="Oval" cx="13.3333333" cy="7.52866667" r="1"></circle>
                <circle id="Oval" cx="16" cy="7.52866667" r="1"></circle>
                <circle id="Oval" cx="18.6666667" cy="7.52866667" r="1"></circle>
                <circle id="Oval" cx="34.6666667" cy="7.52866667" r="1"></circle>
                <circle id="Oval" cx="10.6666667" cy="7.52866667" r="1"></circle>
                <circle id="Oval" cx="8" cy="7.52866667" r="1"></circle>
                <circle id="Oval" cx="5.33333333" cy="7.52866667" r="1"></circle>
            </g>
        </g>
    </g>
</svg>