<?xml version="1.0" encoding="UTF-8"?>
<svg width="16px" height="15px" viewBox="0 0 16 15" version="1.1" xmlns="http://www.w3.org/2000/svg" xmlns:xlink="http://www.w3.org/1999/xlink">
    <!-- Generator: Sketch 50.2 (55047) - http://www.bohemiancoding.com/sketch -->
    <title>sort</title>
    <desc>Created with Sketch.</desc>
    <defs></defs>
    <g id="Tyfli--M-Fasion" stroke="none" stroke-width="1" fill="none" fill-rule="evenodd">
        <g id="product-grid-Mobile-Tyfli" transform="translate(-112.000000, -158.000000)" fill="#444444" fill-rule="nonzero">
            <g id="sort" transform="translate(112.000000, 158.000000)">
                <path d="M12.0918033,14.6097303 C12.0918033,14.8254892 12.2721311,15 12.495082,15 C12.7180328,15 12.8983607,14.8254892 12.8983607,14.6097303 L12.8983607,1.321523 L15.3114754,3.65679535 C15.3901639,3.73294553 15.4918033,3.77102062 15.5967213,3.77102062 C15.7016393,3.77102062 15.8032787,3.73294553 15.8819672,3.65679535 C16.0393443,3.50449498 16.0393443,3.2601798 15.8819672,3.10787943 L12.7836066,0.109465891 C12.6327869,-0.0364886304 12.3672131,-0.0364886304 12.2163934,0.109465891 L9.11803279,3.10787943 C8.96065574,3.2601798 8.96065574,3.50449498 9.11803279,3.65679535 C9.27540984,3.80909572 9.52786885,3.80909572 9.6852459,3.65679535 L12.0983607,1.321523 L12.0983607,14.6097303 L12.0918033,14.6097303 Z" id="Shape"></path>
                <path d="M6.88397918,11.3396067 C6.72655612,11.1873546 6.4740233,11.1873546 6.31660024,11.3396067 L3.90278,13.6741383 L3.90278,0.390145908 C3.90278,0.174455487 3.72239941,0 3.49938341,0 C3.27636741,0 3.09598682,0.174455487 3.09598682,0.390145908 L3.09598682,13.6741383 L0.685446236,11.3396067 C0.528023177,11.1873546 0.275490353,11.1873546 0.118067294,11.3396067 C-0.0393557647,11.4918587 -0.0393557647,11.7360964 0.118067294,11.8883485 L3.21733377,14.885811 C3.2960453,14.961937 3.39771435,15 3.50266306,15 C3.60761177,15 3.70928082,14.961937 3.78799235,14.885811 L6.88725883,11.8883485 C7.03812259,11.7392683 7.03812259,11.4918587 6.88397918,11.3396067 Z" id="Shape"></path>
            </g>
        </g>
    </g>
</svg>