<?xml version="1.0" encoding="UTF-8"?>
<svg width="20px" height="20px" viewBox="0 0 20 20" version="1.1" xmlns="http://www.w3.org/2000/svg" xmlns:xlink="http://www.w3.org/1999/xlink">
    <!-- Generator: Sketch 50.2 (55047) - http://www.bohemiancoding.com/sketch -->
    <title>vkontakte-logo</title>
    <desc>Created with Sketch.</desc>
    <defs></defs>
    <g id="Page-1" stroke="none" stroke-width="1" fill="none" fill-rule="evenodd">
        <g id="Homepage-Tyfli" transform="translate(-286.000000, -3839.000000)" fill="#5F98B9" fill-rule="nonzero">
            <g id="Group-5" transform="translate(195.000000, 3839.000000)">
                <g id="vkontakte-logo" transform="translate(91.000000, 0.000000)">
                    <path d="M11.0779167,11.0225 C10.7572917,10.8358333 10.3116667,10.8358333 9.94958333,10.8358333 L8.760625,10.8358333 L8.760625,13.2858333 L9.851875,13.2858333 C10.2558333,13.2858333 10.7710417,13.3147917 11.119375,13.0702083 C11.4391667,12.855 11.6202083,12.4325 11.6202083,12.0302083 C11.6202083,11.6564583 11.3977083,11.209375 11.0779167,11.0225 Z M10.629375,8.93020833 C10.8939583,8.72875 11.0327083,8.36958333 11.0327083,8.03875 C11.0327083,7.679375 10.8658333,7.334375 10.5597917,7.14770833 C10.2395833,6.96104167 9.654375,7.00416667 9.27854167,7.00416667 L8.760625,7.00416667 L8.760625,9.16041667 L9.44583333,9.16041667 C9.835625,9.16020833 10.2954167,9.18895833 10.629375,8.93020833 Z M16.484375,0 L3.51520833,0 C1.57395833,0 0,1.57395833 0,3.515625 L0,16.484375 C0,18.425625 1.57395833,20 3.51520833,20 L16.484375,20 C18.425625,20 20,18.425625 20,16.484375 L20,3.515625 C20,1.57395833 18.425625,0 16.484375,0 Z M10.5425,15.1114583 L6.45666667,15.1114583 L6.45666667,5.25020833 L10.9208333,5.25020833 C12.2139583,5.25020833 13.4070833,6.07333333 13.4070833,7.52520833 C13.4070833,8.64625 12.78125,9.41395833 11.9829167,9.6525 L11.9829167,9.68145833 C13.1666667,9.92604167 14.0120833,10.5689583 14.0120833,12.12 C14.0120833,13.5554167 13.0345833,15.1114583 10.5425,15.1114583 Z" id="Shape"></path>
                </g>
            </g>
        </g>
    </g>
</svg>