<?xml version="1.0" encoding="UTF-8"?>
<svg width="20px" height="18px" viewBox="0 0 20 18" version="1.1" xmlns="http://www.w3.org/2000/svg" xmlns:xlink="http://www.w3.org/1999/xlink">
    <!-- Generator: Sketch 50.2 (55047) - http://www.bohemiancoding.com/sketch -->
    <title>like</title>
    <desc>Created with Sketch.</desc>
    <defs></defs>
    <g id="Page-1" stroke="none" stroke-width="1" fill="none" fill-rule="evenodd">
        <g id="Product-page-Tyfli" transform="translate(-1326.000000, -598.000000)" fill="#FBFBFB" fill-rule="nonzero">
            <g id="like" transform="translate(1326.000000, 598.000000)">
                <path d="M18.5407813,1.79484581 C17.5543359,0.658784141 16.1858594,0.0331453744 14.6875,0.0331453744 C12.5801563,0.0331453744 11.2459766,1.31059031 10.4978516,2.38226432 C10.30375,2.66035242 10.1386328,2.93919383 10,3.2015815 C9.86136719,2.93919383 9.69628906,2.66035242 9.50214844,2.38226432 C8.75402344,1.31059031 7.41984375,0.0331453744 5.3125,0.0331453744 C3.81414062,0.0331453744 2.44566406,0.658823789 1.45917969,1.79488546 C0.518242187,2.87861233 0,4.33003084 0,5.88175771 C0,7.57086344 0.649726562,9.14189868 2.04472656,10.8258106 C3.29148438,12.3308326 5.08511719,13.882163 7.16210938,15.6785551 C7.93605469,16.3479648 8.73640625,17.0402115 9.58847656,17.7968855 L9.6140625,17.8196432 C9.72453125,17.9178106 9.86226563,17.9668546 10,17.9668546 C10.1377344,17.9668546 10.2754688,17.9177709 10.3859375,17.8196432 L10.4115234,17.7968855 C11.2635937,17.0402115 12.0639453,16.3480044 12.8380078,15.6784758 C14.9148828,13.8822026 16.7085156,12.3308722 17.9552734,10.8258106 C19.3502734,9.14185903 20,7.57086344 20,5.88175771 C20,4.33003084 19.4817578,2.87861233 18.5407813,1.79484581 Z M12.0778516,14.7732423 C11.4106641,15.3502731 10.7240234,15.9441542 10,16.5829956 C9.27601563,15.9442335 8.58933594,15.3503128 7.92203125,14.773163 C3.85722656,11.2574934 1.171875,8.93489868 1.171875,5.88175771 C1.171875,4.61977533 1.58613281,3.44763436 2.33835937,2.58129515 C3.09921875,1.70512335 4.15542969,1.22257269 5.3125,1.22257269 C6.91910156,1.22257269 7.95765625,2.227163 8.5459375,3.06991189 C9.07363281,3.8257533 9.34898438,4.58770044 9.44289063,4.88018062 C9.52144531,5.12500441 9.74632812,5.29069163 10,5.29069163 C10.2536719,5.29069163 10.4785547,5.12500441 10.5571094,4.88018062 C10.6510156,4.58770044 10.9263672,3.8257533 11.4540625,3.06987225 C12.0423438,2.227163 13.0808984,1.22257269 14.6875,1.22257269 C15.8445703,1.22257269 16.9007812,1.70512335 17.6616016,2.58129515 C18.4138672,3.44763436 18.828125,4.61977533 18.828125,5.88175771 C18.828125,8.93489868 16.1427734,11.2574934 12.0778516,14.7732423 Z" id="Shape"></path>
            </g>
        </g>
    </g>
</svg>