<?xml version="1.0" encoding="UTF-8"?>
<svg width="20px" height="18px" viewBox="0 0 20 18" version="1.1" xmlns="http://www.w3.org/2000/svg" xmlns:xlink="http://www.w3.org/1999/xlink">
    <!-- Generator: Sketch 50.2 (55047) - http://www.bohemiancoding.com/sketch -->
    <title>like copy</title>
    <desc>Created with Sketch.</desc>
    <defs></defs>
    <g id="Symbols" stroke="none" stroke-width="1" fill="none" fill-rule="evenodd">
        <g id="header" transform="translate(-1544.000000, -76.000000)" fill="#5F98B9" fill-rule="nonzero">
            <g id="like-copy">
                <g transform="translate(1544.000000, 76.000000)">
                    <path d="M18.5407813,1.76170044 C19.4817578,2.84546696 20,4.29688546 20,5.84861233 C20,7.53771806 19.3502734,9.10871366 17.9552734,10.7926652 C16.7085156,12.2977269 14.9148828,13.8490573 12.8380078,15.6453304 C12.0639453,16.314859 11.2635937,17.0070661 10.4115234,17.7637401 L10.3859375,17.7864978 C10.2754688,17.8846256 10.1377344,17.9337093 10,17.9337093 C9.86226563,17.9337093 9.72453125,17.8846652 9.6140625,17.7864978 L9.58847656,17.7637401 C8.73640625,17.0070661 7.93605469,16.3148194 7.16210938,15.6454097 C5.08511719,13.8490176 3.29148438,12.2976872 2.04472656,10.7926652 C0.649726562,9.1087533 0,7.53771806 0,5.84861233 C0,4.29688546 0.518242187,2.84546696 1.45917969,1.76174009 C2.44566406,0.625678414 3.81414062,5.63425958e-16 5.3125,5.63425958e-16 C7.41984375,5.63425958e-16 8.75402344,1.27744493 9.50214844,2.34911894 C9.69628906,2.62720705 9.86136719,2.90604846 10,3.16843612 C10.1386328,2.90604846 10.30375,2.62720705 10.4978516,2.34911894 C11.2459766,1.27744493 12.5801563,0 14.6875,0 C16.1858594,0 17.5543359,0.625638767 18.5407813,1.76170044 Z" id="Shape"></path>
                </g>
            </g>
        </g>
    </g>
</svg>